<svg id="Слой_1" data-name="Слой 1" xmlns="http://www.w3.org/2000/svg" xmlns:xlink="http://www.w3.org/1999/xlink" viewBox="0 0 301 113"><defs><style>.cls-1{fill:#444240;}.cls-2{fill:url(#linear-gradient);}.cls-3{fill:gray;}.cls-4{fill:url(#linear-gradient-2);}.cls-5{fill:#f5d946;}</style><linearGradient id="linear-gradient" x1="63.38" y1="77.71" x2="37.25" y2="46.57" gradientUnits="userSpaceOnUse"><stop offset="0" stop-color="gray"/><stop offset="0.17" stop-color="#7c7c7c"/><stop offset="0.35" stop-color="#6f6f6f"/><stop offset="0.53" stop-color="#5b5b5b"/><stop offset="0.71" stop-color="#3e3e3e"/><stop offset="0.9" stop-color="#191919"/><stop offset="1"/></linearGradient><linearGradient id="linear-gradient-2" x1="67.04" y1="47.11" x2="47.92" y2="24.32" gradientUnits="userSpaceOnUse"><stop offset="0" stop-color="#f7ed4e"/><stop offset="0.18" stop-color="#f6e94e"/><stop offset="0.36" stop-color="#f2dc4d"/><stop offset="0.55" stop-color="#edc84b"/><stop offset="0.74" stop-color="#e5ab48"/><stop offset="0.93" stop-color="#db8645"/><stop offset="1" stop-color="#d77744"/></linearGradient></defs><title>Logo_Sveton_IBP_2_svg</title><path class="cls-1" d="M100.25,46.21c-3.06,0-7.24-.41-10.23-3.76s-3.25-8.31-3.25-11.84c0-4.59.41-9.32,3.12-12.48,3.2-3.76,8.2-4,10.5-4h12.89v4.82H103.23c-3.58,0-6.6.23-8.44,3-1,1.42-1.79,3.85-1.79,8.62s.87,6.79,1.51,7.8c1.65,2.52,4.58,3.08,8.4,3.08h10.87v4.82Z"/><path class="cls-1" d="M138.1,14.1c1.75,0,4.14.18,5.82,1.92s2,4.77,2,6.88a7.36,7.36,0,0,1-1.52,5.22,4.07,4.07,0,0,1-3,1.65V30a5.47,5.47,0,0,1,3.54,1.7c1.51,1.65,1.51,3.94,1.51,5.74,0,2.11,0,4.67-1.84,6.74s-3.9,2.06-5.87,2.06H123.39c-1.61,0-3.07.18-4.37-1.29a4.87,4.87,0,0,1-1.1-3.25V18.73a5.29,5.29,0,0,1,1-3.3,4.24,4.24,0,0,1,3.4-1.33ZM124,27.58h11.74c1.2,0,2.48,0,3.3-1.14.24-.28.68-1.06.68-3.26a4.74,4.74,0,0,0-1.05-3.44,4,4,0,0,0-3-.82h-9.91a1.65,1.65,0,0,0-1.37.37,2.21,2.21,0,0,0-.41,1.42ZM124,39a3.09,3.09,0,0,0,.37,1.88c.5.55,1.51.5,2,.5h9.54c1,0,2.61,0,3.52-1.15a5.4,5.4,0,0,0,.83-3.26,6.39,6.39,0,0,0-.69-3.26,3.79,3.79,0,0,0-3.26-1.33H124Z"/><path class="cls-1" d="M155.92,46.21c-1.39,0-2.62,0-3.67-1a4.88,4.88,0,0,1-1.2-3.75V18.69a5.25,5.25,0,0,1,1.1-3.35A5,5,0,0,1,156,14.1h20.6v4.82H159.26a2.39,2.39,0,0,0-1.65.46,2,2,0,0,0-.5,1.56v6.47h19v4.82h-19v7.52a1.66,1.66,0,0,0,.47,1.24c.36.37,1.09.41,2.06.41h17.15v4.82Z"/><path class="cls-1" d="M190.23,46.21V18.92H177.7V14.1h31.15v4.82H196.28v27.3Z"/><path class="cls-1" d="M248.86,17.13c3.35,3.21,3.68,8.81,3.68,13s-.37,9.82-3.68,13c-3.48,3.4-9.08,3.4-12.79,3.4s-9.27,0-12.8-3.4c-3.72-3.58-3.72-9.41-3.72-13,0-4.36.24-9.73,3.72-13s8.9-3.4,12.8-3.4S245.33,13.73,248.86,17.13Zm-21.1,22c1.88,2.43,4.91,2.66,8.26,2.66s6.37-.23,8.3-2.66c1.06-1.33,2-3.76,2-8.95,0-5.55-1-7.75-2-9-1.88-2.34-5-2.62-8.3-2.62s-6.38.27-8.26,2.62c-1.24,1.56-2,4.08-2,9C225.79,35.38,226.71,37.77,227.76,39.1Z"/><path class="cls-1" d="M287.86,42c0,3.26-2.16,4.54-4.76,4.54a5.52,5.52,0,0,1-5.19-2.71L264.38,22.5c-.47-.69-.64-.78-.74-.78s-.64.28-.64.91V46.21h-5.87V18.09c0-2.75,1.88-4.36,4.91-4.36,2.85,0,4.22,1.14,5.1,2.52l13.63,21.52c.23.32.32.78.73.78s.5-.55.5-.78V14.1h5.87Z"/><path class="cls-2" d="M65.31,44.15V39.62h-9.9v4.52H34.84v-2a67.66,67.66,0,0,0-3.3,7.41v1.26h3.29v3.3H31.54v3.3H29.12a68.55,68.55,0,0,0-1.94,16.07c0,1.72.09,3.43.22,5.12H71.92V44.15Zm0,9.94h-9.9v-3.3h9.9Z"/><path class="cls-3" d="M24.94,39.87v4.28H18.33V78.58h9.08c-.13-1.69-.22-3.4-.22-5.12a67,67,0,0,1,1.95-16.07h-.89v-3.3h-3.3v-3.3h3.3V47.5h3.3V49.6a73.06,73.06,0,0,1,3.3-7.48V39.87Z"/><path class="cls-4" d="M55.77,18c-1.45,1-2.83,2.15-4.19,3.29v3.46H47.75q-1.9,1.85-3.64,3.85V35.3H39.58v-1C38.3,36.18,37.08,38.07,36,40v3h18.3V38.49H66.44V43h5.49V28.37l6.66,2.91V27.93ZM51.58,35.3H47V27.35h4.61Z"/><path class="cls-5" d="M55.77,18,45.12,13.32l-11.43,5v-5H23.79v9.33L11.67,27.93v3.35l6.65-2.91V43h5.48V38.74H36V40c1.1-1.94,2.32-3.82,3.61-5.66V20.75h4.53v7.87q1.77-2,3.68-3.9H47v-4h4.61v.52C52.94,20.12,54.33,19,55.77,18Z"/><path class="cls-1" d="M106.4,78.09l.16-17.35c0-.36,0-.75-.33-.75s-.49.49-.85,1L96,76.2a3.7,3.7,0,0,1-3.62,2.15c-3.29,0-3.36-2.61-3.36-3.91V55.26h4.34l-.13,17c0,.52,0,1,.39,1s.39-.36.62-.72l9.2-15.07c1.21-2,2.25-2.54,3.81-2.54,3.42,0,3.49,3,3.49,4.11v19Z"/><path class="cls-1" d="M136.3,58.69H123c-1.3,0-1.63.33-1.63,1.63v4.4h10.86c4.24,0,5.22,2.74,5.22,6.65s-1,6.72-5.15,6.72h-11.9c-2,0-3.33-.81-3.33-3.42v-16c0-2.61,1.37-3.42,3.33-3.42H136.3Zm-14.9,9.46V73c0,1.3.33,1.63,1.63,1.63h7.08c2.15,0,2.93-1,2.93-3.29s-.65-3.23-2.93-3.23Z"/><path class="cls-1" d="M143.18,78.09V58.69c0-2.61,1.37-3.42,3.33-3.42h13.63c2,0,3.33.81,3.33,3.42v19.4h-4.3V60.32c0-1.3-.33-1.63-1.63-1.63h-8.41c-1.3,0-1.63.33-1.63,1.63V78.09Z"/><path class="cls-1" d="M16.48,90.68h7v1.58H18.37v2.19h2.54a5,5,0,0,1,1.74.26,2.53,2.53,0,0,1,1.18,1,2.75,2.75,0,0,1,.49,1.63,2.72,2.72,0,0,1-.49,1.64,2.59,2.59,0,0,1-1.12.93,5.07,5.07,0,0,1-1.8.25H16.48Zm1.9,7.85h1.85a6.07,6.07,0,0,0,1.24-.09,1.19,1.19,0,0,0,.63-.4,1.13,1.13,0,0,0,.26-.76,1.05,1.05,0,0,0-.46-1A3.08,3.08,0,0,0,20.3,96H18.37Z"/><path class="cls-1" d="M26.85,100.11V90.68h7v1.59H28.75v2.09h4.72V96H28.75v2.57H34v1.59Z"/><path class="cls-1" d="M42.6,96.65l1.84.59A4.14,4.14,0,0,1,43,99.53,4.41,4.41,0,0,1,37.46,99a4.92,4.92,0,0,1-1.2-3.51,5.17,5.17,0,0,1,1.21-3.66,4.14,4.14,0,0,1,3.18-1.3,3.9,3.9,0,0,1,2.8,1,3.72,3.72,0,0,1,1,1.74l-1.88.45a1.94,1.94,0,0,0-2-1.58,2.13,2.13,0,0,0-1.69.75,3.69,3.69,0,0,0-.65,2.44,4,4,0,0,0,.64,2.55,2.08,2.08,0,0,0,1.66.76,1.9,1.9,0,0,0,1.3-.48A2.8,2.8,0,0,0,42.6,96.65Z"/><path class="cls-1" d="M47.07,90.68h7.47v9.43h-1.9V92.27H49v7.85h-1.9Z"/><path class="cls-1" d="M57.46,100.11V90.68h7v1.59H59.36v2.09h4.72V96H59.36v2.57h5.25v1.59Z"/><path class="cls-1" d="M67.2,100.11V90.68h3a11,11,0,0,1,2.25.14,2.47,2.47,0,0,1,1.35.92,2.93,2.93,0,0,1,.54,1.84A3.09,3.09,0,0,1,74.08,95a2.57,2.57,0,0,1-.8.93,2.74,2.74,0,0,1-1,.45,10.81,10.81,0,0,1-2,.14H69.1v3.56Zm1.9-7.84V95h1a4.9,4.9,0,0,0,1.5-.15,1.25,1.25,0,0,0,.59-.46,1.26,1.26,0,0,0,.22-.73,1.22,1.22,0,0,0-.3-.85,1.31,1.31,0,0,0-.76-.42A9,9,0,0,0,70,92.28Z"/><path class="cls-1" d="M76.94,100.11V90.68h7v1.59H78.83v2.09h4.72V96H78.83v2.57h5.25v1.59Z"/><path class="cls-1" d="M86.71,90.68h7v1.58H88.61v2.19h2.54a5,5,0,0,1,1.74.26,2.53,2.53,0,0,1,1.18,1,3,3,0,0,1,0,3.27,2.59,2.59,0,0,1-1.13.93,5.07,5.07,0,0,1-1.8.25H86.71Zm1.9,7.85h1.85a6.07,6.07,0,0,0,1.24-.09,1.18,1.18,0,0,0,.62-.4,1.13,1.13,0,0,0,.27-.76,1.05,1.05,0,0,0-.46-1,3.08,3.08,0,0,0-1.58-.3H88.61Z"/><path class="cls-1" d="M96.7,95.46A6,6,0,0,1,97.13,93,4.46,4.46,0,0,1,98,91.75a3.65,3.65,0,0,1,1.21-.85,5.14,5.14,0,0,1,2-.37,4.4,4.4,0,0,1,3.32,1.29,5.8,5.8,0,0,1,0,7.17,4.92,4.92,0,0,1-6.64,0A4.88,4.88,0,0,1,96.7,95.46Zm2-.06a3.55,3.55,0,0,0,.74,2.43,2.53,2.53,0,0,0,3.73,0,3.62,3.62,0,0,0,.73-2.46,3.56,3.56,0,0,0-.71-2.42,2.62,2.62,0,0,0-3.77,0A3.57,3.57,0,0,0,98.65,95.39Z"/><path class="cls-1" d="M108.3,90.68h1.77V97l3.81-6.28h1.89v9.43H114V94l-3.8,6.16h-1.9Zm4.87-2.35H114a2,2,0,0,1-.61,1.37,2.18,2.18,0,0,1-2.77,0,2,2,0,0,1-.61-1.37h.88a1,1,0,0,0,.32.69,1.49,1.49,0,0,0,1.6,0A1,1,0,0,0,113.17,88.34Z"/><path class="cls-1" d="M118.7,100.11V90.68h1.9V94.4h3.72V90.68h1.9v9.43h-1.9V96h-3.72v4.12Z"/><path class="cls-1" d="M128.77,95.46a6,6,0,0,1,.43-2.42,4.48,4.48,0,0,1,.87-1.29,3.66,3.66,0,0,1,1.21-.85,5.15,5.15,0,0,1,2-.37,4.39,4.39,0,0,1,3.32,1.29,5.79,5.79,0,0,1,0,7.17,4.36,4.36,0,0,1-3.3,1.29A4.41,4.41,0,0,1,130,99,4.87,4.87,0,0,1,128.77,95.46Zm2-.06a3.55,3.55,0,0,0,.74,2.43,2.53,2.53,0,0,0,3.73,0,3.62,3.62,0,0,0,.73-2.46,3.55,3.55,0,0,0-.71-2.42,2.61,2.61,0,0,0-3.77,0A3.57,3.57,0,0,0,130.72,95.39Z"/><path class="cls-1" d="M140.34,100.11V90.68h7v1.59h-5.07v2.09H147V96h-4.72v2.57h5.25v1.59Z"/><path class="cls-1" d="M157.57,94.62h2.95a3.2,3.2,0,0,0-.7-1.75,2.16,2.16,0,0,0-2.87-.27,2.24,2.24,0,0,0-.73,1.13l-1.88-.43a3.42,3.42,0,0,1,1.27-2,4.08,4.08,0,0,1,2.56-.76,4,4,0,0,1,3.2,1.37,5.34,5.34,0,0,1,1.15,3.56A5.69,5.69,0,0,1,162,98a4.05,4.05,0,0,1-1.47,1.67,4.13,4.13,0,0,1-2.26.59,3.66,3.66,0,0,1-4-3l1.9-.59a2.33,2.33,0,0,0,.73,1.51,2.07,2.07,0,0,0,1.39.49,2,2,0,0,0,1.43-.59,3.17,3.17,0,0,0,.77-1.87h-2.95Z"/><path class="cls-1" d="M165.2,90.68h6.58v9.43h-1.9V92.28h-2.83v4a17,17,0,0,1-.11,2.42,1.74,1.74,0,0,1-.56,1.07,2.11,2.11,0,0,1-1.39.38c-.22,0-.63,0-1.21-.06V98.63h.42a1.4,1.4,0,0,0,.8-.16q.2-.16.2-.79v-7Z"/><path class="cls-1" d="M174.71,100.11V90.68h7v1.59h-5.07v2.09h4.72V96h-4.72v2.57h5.25v1.59Z"/><path class="cls-1" d="M184.48,90.68h1.9v4a1.27,1.27,0,0,0,.86-.33,6.62,6.62,0,0,0,.69-1.47,4,4,0,0,1,1.19-1.9,3.68,3.68,0,0,1,1.9-.37h.28V92H191a1.88,1.88,0,0,0-.85.15,1.09,1.09,0,0,0-.44.44,9.46,9.46,0,0,0-.49,1.22,4.42,4.42,0,0,1-.38.82,1.93,1.93,0,0,1-.72.62,2,2,0,0,1,1,.73,9.87,9.87,0,0,1,.91,1.54l1.28,2.59h-2.23L188,97.68l-.11-.2-.24-.44a2.84,2.84,0,0,0-.6-.87,1.22,1.22,0,0,0-.71-.18v4.13h-1.9Z"/><path class="cls-1" d="M195.88,100.11V92.28H193.1V90.68h7.46v1.59h-2.78v7.84Z"/><path class="cls-1" d="M202.77,100.11V90.68h3a11,11,0,0,1,2.26.14,2.46,2.46,0,0,1,1.35.92,2.93,2.93,0,0,1,.54,1.84,3.1,3.1,0,0,1-.31,1.46,2.58,2.58,0,0,1-.8.93,2.76,2.76,0,0,1-1,.45,10.84,10.84,0,0,1-2,.14h-1.24v3.56Zm1.9-7.84V95h1a4.91,4.91,0,0,0,1.5-.15,1.25,1.25,0,0,0,.59-.46,1.27,1.27,0,0,0,.21-.73,1.22,1.22,0,0,0-.3-.85,1.31,1.31,0,0,0-.76-.42,9.08,9.08,0,0,0-1.37-.07Z"/><path class="cls-1" d="M211.95,95.46a6,6,0,0,1,.43-2.42,4.45,4.45,0,0,1,.87-1.29,3.67,3.67,0,0,1,1.22-.85,5.15,5.15,0,0,1,2-.37,4.4,4.4,0,0,1,3.32,1.29,5.8,5.8,0,0,1,0,7.17,4.36,4.36,0,0,1-3.31,1.29A4.41,4.41,0,0,1,213.18,99,4.88,4.88,0,0,1,211.95,95.46Zm2-.06a3.55,3.55,0,0,0,.74,2.43,2.53,2.53,0,0,0,3.73,0,3.62,3.62,0,0,0,.73-2.46,3.56,3.56,0,0,0-.71-2.42,2.62,2.62,0,0,0-3.77,0A3.58,3.58,0,0,0,213.9,95.39Z"/><path class="cls-1" d="M223.55,90.68H231v9.43h-1.89V92.27h-3.68v7.85h-1.9Z"/><path class="cls-1" d="M234,90.68h1.78V97l3.8-6.28h1.89v9.43h-1.77V94l-3.8,6.16H234Z"/><path class="cls-1" d="M246.47,100.11V92.28h-2.79V90.68h7.46v1.59h-2.78v7.84Z"/><path class="cls-1" d="M261,100.11h-2.06L258.11,98h-3.75l-.78,2.14h-2l3.66-9.43h2Zm-3.49-3.73-1.29-3.5-1.27,3.5Z"/><path class="cls-1" d="M263,100.11V90.68h1.9V94.4h3.72V90.68h1.9v9.43h-1.9V96h-3.72v4.12Z"/><path class="cls-1" d="M273.47,90.68h1.78V97L279,90.68h1.89v9.43h-1.78V94l-3.8,6.16h-1.9Z"/><path class="cls-1" d="M283.86,100.11V90.68h7v1.59h-5.07v2.09h4.72V96h-4.72v2.57H291v1.59Z"/></svg>